<?xml version="1.0" encoding="UTF-8" standalone="no"?>
<svg
   viewBox="0 0 512 512"
   version="1.1"
   id="svg69"
   sodipodi:docname="facebook.svg"
   inkscape:export-filename="facebookcontacto.svg"
   inkscape:export-xdpi="96"
   inkscape:export-ydpi="96"
   inkscape:version="1.2.2 (732a01da63, 2022-12-09)"
   xmlns:inkscape="http://www.inkscape.org/namespaces/inkscape"
   xmlns:sodipodi="http://sodipodi.sourceforge.net/DTD/sodipodi-0.dtd"
   xmlns="http://www.w3.org/2000/svg"
   xmlns:svg="http://www.w3.org/2000/svg">
  <defs
     id="defs73" />
  <sodipodi:namedview
     id="namedview71"
     pagecolor="#ffffff"
     bordercolor="#000000"
     borderopacity="0.25"
     inkscape:showpageshadow="2"
     inkscape:pageopacity="0.0"
     inkscape:pagecheckerboard="0"
     inkscape:deskcolor="#d1d1d1"
     showgrid="false"
     inkscape:zoom="1.5136719"
     inkscape:cx="256"
     inkscape:cy="255.66968"
     inkscape:window-width="1920"
     inkscape:window-height="991"
     inkscape:window-x="-9"
     inkscape:window-y="-9"
     inkscape:window-maximized="1"
     inkscape:current-layer="svg69" />
  <!--! Font Awesome Pro 6.4.0 by @fontawesome - https://fontawesome.com License - https://fontawesome.com/license (Commercial License) Copyright 2023 Fonticons, Inc. -->
  <path
     d="M504 256C504 119 393 8 256 8S8 119 8 256c0 123.78 90.69 226.38 209.25 245V327.69h-63V256h63v-54.64c0-62.15 37-96.48 93.67-96.48 27.14 0 55.52 4.84 55.52 4.84v61h-31.28c-30.8 0-40.41 19.12-40.41 38.73V256h68.78l-11 71.69h-57.78V501C413.31 482.38 504 379.78 504 256z"
     id="path67" />
  <path
     style="fill:#0000ff;stroke-width:0.660645"
     d="M 205.46065,498.44391 C 168.07522,490.71224 131.79922,473.57133 101.07871,449.12201 91.078768,441.16343 70.621439,420.61134 62.489105,410.35366 3.1323072,335.48425 -8.3970596,234.47435 32.682911,149.21871 57.467699,97.78141 97.78141,57.467699 149.21871,32.682911 203.2588,6.6439856 266.12003,1.2962653 323.74581,17.83557 c 82.01084,23.538113 146.13058,87.27629 170.03161,169.01977 14.03146,47.98875 13.00996,99.68387 -2.91326,147.43111 -9.33134,27.98088 -23.19856,53.33548 -42.3464,77.42543 -6.93315,8.72263 -28.62104,30.32165 -37.59647,37.44242 -26.69099,21.17563 -55.97157,36.2056 -88.38355,45.36803 -7.68914,2.17361 -24.70849,5.91638 -26.90335,5.91638 -0.43132,0 -0.65633,-29.55658 -0.65633,-86.21419 v -86.2142 h 28.92439 28.92438 l 5.18219,-33.85806 c 2.85021,-18.62194 5.33223,-34.82426 5.5156,-36.00516 L 363.85804,256 h -34.48526 -34.48525 l 0.26444,-27.58194 c 0.22841,-23.82589 0.42229,-28.12172 1.42372,-31.5458 3.72012,-12.71985 12.54512,-21.18799 25.52377,-24.49166 3.31156,-0.84295 8.77934,-1.1588 24.57409,-1.41951 l 20.31484,-0.33533 v -30.57097 -30.57097 l -2.1471,-0.39148 c -1.1809,-0.21531 -7.05239,-0.98262 -13.04774,-1.70514 -31.99507,-3.85579 -54.46846,-3.55417 -71.24009,0.95612 -28.80016,7.74504 -49.26228,27.17019 -58.1113,55.16636 -4.78038,15.12397 -5.40827,22.1526 -5.41481,60.61419 L 217.02194,256 H 185.31097 153.6 v 36.00516 36.00516 h 31.71097 31.71097 v 86.2142 c 0,81.68394 -0.0608,86.21204 -1.15613,86.17319 -0.63587,-0.0225 -5.3182,-0.90176 -10.40516,-1.9538 z"
     id="path198" />
</svg>
