<?xml version="1.0" encoding="UTF-8" standalone="no"?>
<svg
   viewBox="0 0 448 512"
   version="1.1"
   id="svg189"
   sodipodi:docname="fb-menu.svg"
   inkscape:version="1.2.2 (732a01da63, 2022-12-09)"
   xmlns:inkscape="http://www.inkscape.org/namespaces/inkscape"
   xmlns:sodipodi="http://sodipodi.sourceforge.net/DTD/sodipodi-0.dtd"
   xmlns="http://www.w3.org/2000/svg"
   xmlns:svg="http://www.w3.org/2000/svg">
  <defs
     id="defs193" />
  <sodipodi:namedview
     id="namedview191"
     pagecolor="#ffffff"
     bordercolor="#000000"
     borderopacity="0.25"
     inkscape:showpageshadow="2"
     inkscape:pageopacity="0.0"
     inkscape:pagecheckerboard="0"
     inkscape:deskcolor="#d1d1d1"
     showgrid="false"
     inkscape:zoom="1.5703125"
     inkscape:cx="224.1592"
     inkscape:cy="256"
     inkscape:window-width="1920"
     inkscape:window-height="991"
     inkscape:window-x="-9"
     inkscape:window-y="-9"
     inkscape:window-maximized="1"
     inkscape:current-layer="svg189" />
  <!--! Font Awesome Pro 6.4.0 by @fontawesome - https://fontawesome.com License - https://fontawesome.com/license (Commercial License) Copyright 2023 Fonticons, Inc. -->
  <path
     d="M400 32H48A48 48 0 0 0 0 80v352a48 48 0 0 0 48 48h137.25V327.69h-63V256h63v-54.64c0-62.15 37-96.48 93.67-96.48 27.14 0 55.52 4.84 55.52 4.84v61h-31.27c-30.81 0-40.42 19.12-40.42 38.73V256h68.78l-11 71.69h-57.78V480H400a48 48 0 0 0 48-48V80a48 48 0 0 0-48-48z"
     id="path187" />
  <path
     style="fill:#ffcc00;stroke-width:0.636816"
     d="M 41.393035,479.20301 C 22.811978,476.40839 7.9256123,463.37107 2.1288972,444.81592 L 0.63681592,440.0398 V 256 71.960199 L 2.1288972,67.18408 C 7.3333493,50.524744 19.221282,38.869382 36.321471,33.660435 c 3.625124,-1.104261 12.012463,-1.16606 184.335249,-1.358199 131.76737,-0.14692 181.90529,-0.0069 185.60133,0.518312 19.72452,2.802902 35.72906,17.431623 40.28039,36.8177 1.0856,4.624061 1.14315,14.006958 1.14315,186.361752 0,171.9816 -0.0596,181.74622 -1.13685,186.33341 -1.23376,5.25353 -4.37908,12.33267 -7.48569,16.84797 -7.18504,10.44311 -19.86255,18.18697 -32.69615,19.97196 -3.28892,0.45744 -28.04486,0.68746 -73.99107,0.68746 h -69.04845 v -75.7811 -75.78109 h 28.65672 c 15.76119,0 28.68041,-0.0716 28.70937,-0.15921 0.029,-0.0876 2.55259,-16.35025 5.60805,-36.1393 L 331.85291,256 l -34.26476,-0.16469 -34.26477,-0.16468 v -26.63892 c 0,-24.44405 0.10365,-27.04419 1.25799,-31.55763 2.60942,-10.2027 8.26,-17.5316 16.69066,-21.64806 8.54483,-4.17222 10.075,-4.39046 32.83742,-4.68335 l 20.53732,-0.26427 v -30.83224 c 0,-16.95772 -0.10642,-30.83223 -0.23649,-30.83223 -0.13007,0 -5.78977,-0.70113 -12.57712,-1.55807 -28.02242,-3.53796 -52.60142,-3.80558 -67.1784,-0.73144 -18.86165,3.97773 -32.91099,11.37675 -44.65683,23.51829 -11.3189,11.70022 -18.15224,24.85665 -22.04963,42.45281 -2.55871,11.55219 -2.95328,18.45274 -2.95328,51.64956 v 31.13651 h -31.52238 -31.52239 v 36.29851 36.29851 h 31.52239 31.52238 v 75.78109 75.7811 l -70.20895,-0.0795 c -38.614926,-0.0437 -71.641791,-0.29495 -73.393035,-0.55834 z"
     id="path333" />
  <path
     style="fill:#ffcc00;stroke-width:0.636816"
     d="M 102.84577,479.20843 C 31.197176,478.83058 37.217313,479.23711 27.069486,474.09137 15.436703,468.19263 7.107172,458.22261 2.5034311,444.68705 L 0.95522388,440.13513 V 256 71.864871 L 2.4859744,67.364277 C 8.0291891,51.06655 18.050377,40.799187 34.544924,34.517785 L 38.208955,33.12246 220.97512,32.930108 c 131.76402,-0.138676 183.91189,0.0048 186.87187,0.514107 16.16967,2.782288 30.72464,14.961374 36.62026,30.642532 1.47139,3.913609 1.85047,6.216926 2.29147,13.923203 0.68635,11.99373 0.69137,343.8694 0.005,355.9801 -0.46546,8.21751 -0.74757,9.79456 -2.56312,14.32836 -1.12205,2.80199 -3.06185,6.77895 -4.31066,8.8377 -6.05782,9.98665 -18.42596,18.50409 -30.58012,21.05931 -3.47674,0.73093 -17.79601,0.9908 -75.14104,1.36366 l -70.84549,0.46066 v -75.88057 -75.88056 h 28.83993 28.83992 l 5.27581,-34.10691 c 2.9017,-18.75881 5.43586,-35.09313 5.63146,-36.29851 l 0.35564,-2.1916 h -34.5648 -34.5648 l 0.45185,-27.22388 c 0.49851,-30.03525 0.68408,-31.6101 4.6066,-39.09254 3.9471,-7.52936 11.27833,-13.27793 20.60103,-16.15372 3.26231,-1.00633 11.42834,-1.41091 44.0995,-2.18489 l 1.75125,-0.0415 v -31.09544 -31.09545 l -12.57712,-1.39532 c -20.09059,-2.22886 -26.3777,-2.63218 -40.91542,-2.62476 -18.79362,0.01 -28.50021,1.43792 -41.5024,6.10713 -16.40529,5.89129 -30.70059,17.39454 -40.33703,32.45872 -7.00275,10.94707 -11.90037,25.95159 -13.64038,41.78918 -0.39078,3.5569 -0.6794,19.85602 -0.6794,38.36816 v 32.1843 h -31.52238 -31.52239 v 36.29851 36.29851 h 31.52239 31.52238 v 75.78109 75.7811 l -9.07462,-0.14743 c -4.99105,-0.0811 -37.87463,-0.29931 -73.07463,-0.48494 z"
     id="path645" />
</svg>
