<?xml version="1.0" encoding="UTF-8" standalone="no"?>
<svg
   viewBox="0 0 448 512"
   version="1.1"
   id="svg493"
   sodipodi:docname="instamenu.svg"
   inkscape:version="1.2.2 (732a01da63, 2022-12-09)"
   xmlns:inkscape="http://www.inkscape.org/namespaces/inkscape"
   xmlns:sodipodi="http://sodipodi.sourceforge.net/DTD/sodipodi-0.dtd"
   xmlns="http://www.w3.org/2000/svg"
   xmlns:svg="http://www.w3.org/2000/svg">
  <defs
     id="defs497" />
  <sodipodi:namedview
     id="namedview495"
     pagecolor="#ffffff"
     bordercolor="#000000"
     borderopacity="0.25"
     inkscape:showpageshadow="2"
     inkscape:pageopacity="0.0"
     inkscape:pagecheckerboard="0"
     inkscape:deskcolor="#d1d1d1"
     showgrid="false"
     inkscape:zoom="1.5703125"
     inkscape:cx="224.1592"
     inkscape:cy="256"
     inkscape:window-width="1920"
     inkscape:window-height="991"
     inkscape:window-x="-9"
     inkscape:window-y="-9"
     inkscape:window-maximized="1"
     inkscape:current-layer="svg493" />
  <!--! Font Awesome Pro 6.4.0 by @fontawesome - https://fontawesome.com License - https://fontawesome.com/license (Commercial License) Copyright 2023 Fonticons, Inc. -->
  <path
     d="M224.1 141c-63.6 0-114.9 51.3-114.9 114.9s51.3 114.9 114.9 114.9S339 319.5 339 255.9 287.7 141 224.1 141zm0 189.6c-41.1 0-74.7-33.5-74.7-74.7s33.5-74.7 74.7-74.7 74.7 33.5 74.7 74.7-33.6 74.7-74.7 74.7zm146.4-194.3c0 14.9-12 26.8-26.8 26.8-14.9 0-26.8-12-26.8-26.8s12-26.8 26.8-26.8 26.8 12 26.8 26.8zm76.1 27.2c-1.7-35.9-9.9-67.7-36.2-93.9-26.2-26.2-58-34.4-93.9-36.2-37-2.1-147.9-2.1-184.9 0-35.8 1.7-67.6 9.9-93.9 36.1s-34.4 58-36.2 93.9c-2.1 37-2.1 147.9 0 184.9 1.7 35.9 9.9 67.7 36.2 93.9s58 34.4 93.9 36.2c37 2.1 147.9 2.1 184.9 0 35.9-1.7 67.7-9.9 93.9-36.2 26.2-26.2 34.4-58 36.2-93.9 2.1-37 2.1-147.8 0-184.8zM398.8 388c-7.8 19.6-22.9 34.7-42.6 42.6-29.5 11.7-99.5 9-132.1 9s-102.7 2.6-132.1-9c-19.6-7.8-34.7-22.9-42.6-42.6-11.7-29.5-9-99.5-9-132.1s-2.6-102.7 9-132.1c7.8-19.6 22.9-34.7 42.6-42.6 29.5-11.7 99.5-9 132.1-9s102.7-2.6 132.1 9c19.6 7.8 34.7 22.9 42.6 42.6 11.7 29.5 9 99.5 9 132.1s2.7 102.7-9 132.1z"
     id="path491" />
  <path
     style="fill:#d4aa00;stroke-width:0.636816"
     d="M 166.49131,479.21019 C 126.90343,478.40542 111.14044,477.0208 94.081885,472.84977 64.524361,465.62259 40.165484,448.86718 23.789453,424.49865 14.126726,410.11992 8.0411383,394.4052 4.7769606,375.40299 1.1978209,354.56724 0.66879764,339.16258 0.6655153,255.68159 0.66231034,174.16627 1.1872587,158.12207 4.5201589,137.87065 10.157349,103.61786 26.61543,76.089729 52.588295,57.47088 64.830242,48.695144 82.667329,41.135553 99.343284,37.655501 120.4094,33.25928 138.13729,32.525592 223.52239,32.516213 c 94.23152,-0.01035 109.55634,0.829585 134.04975,7.347114 37.96861,10.103185 67.40046,37.477996 80.14308,74.541753 4.46808,12.99608 7.03466,26.94514 8.36002,45.43572 1.43471,20.01622 2.18154,94.84478 1.39348,139.61859 -1.00061,56.84924 -1.92163,68.766 -6.77979,87.72126 -6.01816,23.48124 -15.89679,40.38796 -33.39731,57.15765 -19.97236,19.13831 -45.85313,29.83962 -79.64983,32.93401 -20.6916,1.89451 -110.28558,2.9719 -161.15048,1.93788 z m 140.13556,-40.07147 c 28.27719,-2.00507 41.94657,-4.60086 53.89383,-10.23432 11.21158,-5.28657 20.01164,-12.12168 26.94993,-20.93233 14.27575,-18.12816 18.66219,-36.1135 20.37496,-83.54163 0.78826,-21.82768 0.78358,-114.31424 -0.007,-136.7153 -0.947,-26.83621 -3.0951,-45.38968 -6.72756,-58.10711 -4.45097,-15.58314 -16.02572,-31.445594 -29.65787,-40.644228 -14.56923,-9.83095 -27.67729,-13.260238 -61.64227,-16.126654 -12.39063,-1.045685 -137.09374,-1.519157 -157.47893,-0.597915 -25.19629,1.138665 -40.83819,2.955952 -52.648034,6.116685 -23.911189,6.399484 -44.01918,25.354512 -51.829346,48.857522 -2.917258,8.77887 -5.313196,23.95067 -6.86215,43.45323 -1.024275,12.89641 -1.49742,135.67598 -0.601458,156.07601 2.066076,47.04219 6.676031,64.88615 21.32601,82.54755 6.963186,8.39454 18.261058,16.69026 28.517042,20.93931 13.005326,5.38809 34.969806,8.50368 66.422636,9.42183 23.19403,0.67706 138.76326,0.282 149.97015,-0.51265 z"
     id="path570" />
  <path
     style="fill:#d4aa00;stroke-width:0.636816"
     d="m 211.74129,369.86993 c -15.7058,-1.65378 -35.50743,-8.59674 -48.83678,-17.12343 -28.43373,-18.18884 -46.9692,-46.7705 -52.13473,-80.3917 -1.107,-7.20518 -1.27632,-24.44244 -0.3065,-31.20253 4.21947,-29.41175 18.17011,-54.67029 40.46209,-73.25925 7.58382,-6.32403 13.66422,-10.24636 22.92538,-14.78861 65.2588,-32.00703 143.47767,4.37983 161.39425,75.07946 3.68125,14.52637 4.22882,34.90125 1.32945,49.46787 -7.01276,35.23252 -29.59546,64.80293 -61.77122,80.88494 -10.76628,5.38118 -22.63943,9.03519 -35.12488,10.80982 -5.97544,0.84932 -21.99219,1.14942 -27.93706,0.52343 z m 24.86603,-40.07231 c 15.70015,-2.69691 29.19512,-9.68152 40.42175,-20.92111 14.45613,-14.47284 21.94563,-32.64635 21.95344,-53.27071 0.0109,-28.68955 -16.20723,-54.42349 -42.31273,-67.13938 -10.36766,-5.05005 -17.42054,-6.72585 -29.96331,-7.11944 -7.935,-0.249 -11.45696,-0.0824 -15.9204,0.75319 -10.44159,1.95469 -20.57596,6.10652 -29.19848,11.96196 -5.01088,3.40282 -13.67553,11.73879 -17.69334,17.02218 -4.47252,5.88132 -10.36554,18.16761 -12.38015,25.81121 -2.31147,8.76994 -2.8536,22.87338 -1.22824,31.95225 2.80777,15.68351 9.64132,28.72823 20.97482,40.03936 17.29019,17.25606 41.50759,25.00547 65.34664,20.91049 z"
     id="path572" />
  <path
     style="fill:#d4aa00;stroke-width:0.636816"
     d="m 335.9204,161.51251 c -6.909,-2.22009 -13.32184,-7.91312 -16.43084,-14.58655 -1.51127,-3.24392 -1.69808,-4.40868 -1.70766,-10.64735 -0.0103,-6.69529 0.0842,-7.19421 2.13738,-11.28534 4.17941,-8.32784 12.68825,-14.1953 21.67873,-14.94902 11.65977,-0.97752 22.84774,6.25097 26.94338,17.40798 1.88133,5.12498 1.86121,13.16013 -0.0452,18.06021 -5.01071,12.87883 -19.75389,20.12016 -32.57575,16.00007 z"
     id="path574" />
  <path
     style="fill:#ffcc00;stroke-width:0.636816"
     d="M 150.60697,478.5523 C 117.58191,477.40392 99.753011,474.93768 83.138305,469.21946 52.896498,458.81126 29.352882,437.83921 15.691668,409.13972 7.7499224,392.45569 4.0951862,376.10712 2.0994654,348.33831 0.92482687,331.99418 0.92404467,179.34547 2.0985159,163.02488 3.5393031,143.00352 5.968164,129.10709 10.321948,115.9755 13.345002,106.85756 20.788684,92.087698 26.246324,84.378109 31.522648,76.924652 45.258979,63.097666 52.469171,57.982202 63.988206,49.809714 84.13319,41.26985 99.661692,37.976348 118.63086,33.953099 130.54623,33.391514 205.37313,32.994046 c 63.18273,-0.335616 105.36377,0.265166 120.99503,1.723325 39.51406,3.68606 68.8241,17.492427 89.53533,42.175228 17.76082,21.166615 26.47486,44.519511 29.52603,79.127301 2.53539,28.75744 2.54071,161.51145 0.008,197.73134 -1.58228,22.62727 -6.52639,43.01034 -14.10023,58.13092 -10.49292,20.9483 -29.85045,40.31867 -50.74536,50.77903 -19.76954,9.89699 -38.21093,13.88236 -70.78088,15.29648 -19.93932,0.86572 -138.65624,1.30913 -159.20398,0.59463 z m 135.32338,-38.817 c 28.69339,-0.56772 41.65289,-1.60464 55.61465,-4.44986 24.52375,-4.99763 43.5959,-18.99007 54.40185,-39.91238 7.1864,-13.91418 10.32116,-30.89246 11.9176,-64.54719 0.83667,-17.63782 0.84236,-131.1093 0.008,-149.01492 -1.41385,-30.32286 -4.2479,-48.33901 -9.53746,-60.63007 -5.26281,-12.22881 -16.17735,-25.433485 -26.94387,-32.597276 -13.49819,-8.981386 -24.86776,-12.233186 -53.9379,-15.426726 -7.71564,-0.847612 -21.4252,-1.067075 -83.38295,-1.334799 -75.30277,-0.325388 -89.09808,-0.06325 -109.44135,2.07963 -18.83094,1.983574 -28.008137,4.245847 -38.658291,9.52967 -15.72857,7.803359 -27.893631,20.239351 -35.337821,36.124841 -4.378063,9.34254 -7.021468,21.66561 -9.328907,43.48963 -1.034634,9.78569 -1.144357,18.43373 -1.163206,91.68052 -0.01874,72.82631 0.09206,82.04816 1.113316,92.65671 3.14817,32.70259 7.680105,46.75214 19.915553,61.74065 6.939105,8.50045 19.206682,17.45004 29.612655,21.60337 12.212221,4.87425 32.105631,7.86712 59.506821,8.95249 16.9348,0.67081 102.77242,0.70605 135.64179,0.0557 z"
     id="path647" />
  <path
     style="fill:#ffcc00;stroke-width:0.636816"
     d="M 140.41791,477.91863 C 105.91813,476.00439 87.176151,472.01436 68.313766,462.56816 45.523108,451.15471 27.864492,433.2481 16.560149,410.08773 7.489643,391.50405 3.4159547,371.68983 2.2282557,340.37811 1.4503735,319.87053 1.4603622,190.2614 2.241335,170.66667 c 0.9359215,-23.48242 3.6645914,-40.86186 8.676026,-55.25934 2.671358,-7.67461 9.326036,-21.169201 13.888484,-28.163549 6.501851,-9.967498 20.874304,-24.46714 30.404774,-30.673839 14.011558,-9.124997 34.989147,-16.984319 53.048091,-19.874635 15.40506,-2.465564 24.47288,-2.735817 103.09122,-3.072475 78.82371,-0.337538 106.14459,0.133401 121.23852,2.089829 37.53097,4.864647 64.59565,18.693126 84.45916,43.15373 15.52996,19.12413 23.99698,41.032869 27.45657,71.044889 1.62456,14.09311 2.25991,42.82089 2.2618,102.26782 0.003,91.82393 -1.06347,112.44469 -7.00698,135.49593 -5.90039,22.88401 -15.48253,39.18983 -32.66162,55.57993 -8.82348,8.41825 -16.75289,14.00012 -27.55509,19.3973 -17.78561,8.88633 -33.92776,12.69889 -62.08955,14.66473 -12.30248,0.85877 -163.16069,1.37146 -177.03483,0.60164 z m 155.94554,-38.21027 c 35.70852,-1.21714 51.47932,-3.97815 66.74645,-11.68539 10.88314,-5.49408 19.32453,-12.54865 26.44822,-22.10309 11.85591,-15.90138 16.30159,-33.39256 18.35806,-72.22834 0.9425,-17.79871 0.45151,-156.58151 -0.59252,-167.48258 -3.42119,-35.72189 -7.33112,-47.70639 -20.92505,-64.13826 -16.8796,-20.403494 -38.76217,-28.128252 -84.57031,-29.854131 -10.11963,-0.38127 -47.26384,-0.546695 -90.10945,-0.401311 -76.61756,0.259979 -79.60266,0.360944 -99.1016,3.351937 -22.955345,3.521179 -41.317818,13.880018 -53.675644,30.280095 -9.91896,13.16345 -13.878814,25.06578 -17.370389,52.21104 -1.416996,11.01645 -1.427526,11.73347 -1.434826,97.70485 -0.0073,86.31842 -0.0025,86.64622 1.445253,98.38806 3.071536,24.9111 6.529338,36.63601 14.336635,48.61346 9.020617,13.83885 25.466999,26.16821 40.916994,30.67426 10.751477,3.13571 28.572367,5.63027 47.403537,6.63554 13.85068,0.7394 130.66273,0.76539 152.12464,0.0339 z"
     id="path649" />
  <path
     style="fill:#ffcc00;stroke-width:0.636816"
     d="m 205.37313,368.6274 c -12.3669,-2.26482 -29.07782,-8.40806 -39.06189,-14.35987 -26.59581,-15.85458 -45.39761,-41.06809 -52.85877,-70.88445 -2.49607,-9.97483 -3.11048,-15.64216 -3.10675,-28.65671 0.003,-10.51976 0.21915,-13.15126 1.65546,-20.15512 4.86739,-23.73478 14.77644,-42.27122 31.60244,-59.11732 9.89319,-9.905 17.34424,-15.27396 29.61031,-21.33614 13.87272,-6.85622 24.96628,-10.17226 39.29829,-11.74685 40.9765,-4.50192 82.94347,15.27281 106.43426,50.15155 5.11626,7.59653 11.33743,20.62736 14.0399,29.40786 4.02176,13.067 4.52316,16.932 4.5024,34.70647 -0.0177,15.17634 -0.1022,16.27754 -1.80753,23.56218 -5.3501,22.85408 -15.78691,41.28056 -32.66178,57.66532 -15.6369,15.18274 -34.57389,25.26078 -56.2533,29.93735 -8.87536,1.91454 -32.83752,2.39256 -41.39304,0.82573 z m 34.06966,-39.17555 c 14.39858,-2.85179 26.71212,-9.55899 37.6529,-20.50959 10.19786,-10.20701 16.25081,-20.62018 19.79151,-34.04822 2.18686,-8.29366 2.74448,-23.15507 1.20719,-32.17372 -2.57289,-15.09418 -9.64855,-28.70969 -20.67489,-39.78424 -11.08153,-11.12998 -26.51456,-19.18082 -40.41085,-21.08085 -7.3662,-1.00717 -22.43694,-0.85711 -27.82879,0.2771 -10.23823,2.15368 -21.58156,7.10427 -29.27677,12.77731 -6.65324,4.90488 -15.84987,14.69902 -19.3255,20.58108 -3.90548,6.60955 -7.81224,15.57165 -9.46958,21.72321 -1.85452,6.88345 -2.33155,24.86718 -0.86633,32.66057 2.98113,15.85647 9.86536,28.47113 21.83434,40.00927 6.79064,6.54618 11.66648,9.92878 20.1595,13.98557 14.58414,6.96628 30.63638,8.86454 47.20727,5.58251 z"
     id="path651" />
  <path
     style="fill:#ffcc00;stroke-width:0.636816"
     d="m 335.22473,160.90193 c -6.69312,-2.70118 -12.23713,-7.9038 -15.28279,-14.34173 -1.66387,-3.51707 -1.85143,-4.56587 -1.85189,-10.35524 -4.7e-4,-6.08985 0.12132,-6.6853 2.22921,-10.89873 2.75465,-5.50621 7.1311,-9.73364 12.91165,-12.47201 3.92663,-1.86013 4.81063,-2.02825 10.66472,-2.02825 5.94537,0 6.6783,0.14533 10.68554,2.11885 5.47514,2.69643 9.95778,7.17965 12.65322,12.65486 1.97329,4.00833 2.11884,4.74236 2.11884,10.68554 0,5.86227 -0.1663,6.73263 -2.04372,10.69614 -2.55573,5.39551 -7.05626,9.87787 -12.71502,12.66367 -3.76025,1.85117 -4.94223,2.11093 -10.34526,2.27356 -4.77885,0.14384 -6.73337,-0.072 -9.0245,-0.99666 z"
     id="path653" />
</svg>
