<?xml version="1.0" encoding="UTF-8" standalone="no"?>
<svg
   viewBox="0 0 448 512"
   version="1.1"
   id="svg210"
   sodipodi:docname="instagram.svg"
   inkscape:export-filename="instagramcontacto.svg"
   inkscape:export-xdpi="96"
   inkscape:export-ydpi="96"
   inkscape:version="1.2.2 (732a01da63, 2022-12-09)"
   xmlns:inkscape="http://www.inkscape.org/namespaces/inkscape"
   xmlns:sodipodi="http://sodipodi.sourceforge.net/DTD/sodipodi-0.dtd"
   xmlns="http://www.w3.org/2000/svg"
   xmlns:svg="http://www.w3.org/2000/svg">
  <defs
     id="defs214" />
  <sodipodi:namedview
     id="namedview212"
     pagecolor="#ffffff"
     bordercolor="#000000"
     borderopacity="0.25"
     inkscape:showpageshadow="2"
     inkscape:pageopacity="0.0"
     inkscape:pagecheckerboard="0"
     inkscape:deskcolor="#d1d1d1"
     showgrid="false"
     inkscape:zoom="1.5703125"
     inkscape:cx="224.47761"
     inkscape:cy="256"
     inkscape:window-width="1920"
     inkscape:window-height="991"
     inkscape:window-x="-9"
     inkscape:window-y="-9"
     inkscape:window-maximized="1"
     inkscape:current-layer="svg210" />
  <!--! Font Awesome Pro 6.4.0 by @fontawesome - https://fontawesome.com License - https://fontawesome.com/license (Commercial License) Copyright 2023 Fonticons, Inc. -->
  <path
     d="M224.1 141c-63.6 0-114.9 51.3-114.9 114.9s51.3 114.9 114.9 114.9S339 319.5 339 255.9 287.7 141 224.1 141zm0 189.6c-41.1 0-74.7-33.5-74.7-74.7s33.5-74.7 74.7-74.7 74.7 33.5 74.7 74.7-33.6 74.7-74.7 74.7zm146.4-194.3c0 14.9-12 26.8-26.8 26.8-14.9 0-26.8-12-26.8-26.8s12-26.8 26.8-26.8 26.8 12 26.8 26.8zm76.1 27.2c-1.7-35.9-9.9-67.7-36.2-93.9-26.2-26.2-58-34.4-93.9-36.2-37-2.1-147.9-2.1-184.9 0-35.8 1.7-67.6 9.9-93.9 36.1s-34.4 58-36.2 93.9c-2.1 37-2.1 147.9 0 184.9 1.7 35.9 9.9 67.7 36.2 93.9s58 34.4 93.9 36.2c37 2.1 147.9 2.1 184.9 0 35.9-1.7 67.7-9.9 93.9-36.2 26.2-26.2 34.4-58 36.2-93.9 2.1-37 2.1-147.8 0-184.8zM398.8 388c-7.8 19.6-22.9 34.7-42.6 42.6-29.5 11.7-99.5 9-132.1 9s-102.7 2.6-132.1-9c-19.6-7.8-34.7-22.9-42.6-42.6-11.7-29.5-9-99.5-9-132.1s-2.6-102.7 9-132.1c7.8-19.6 22.9-34.7 42.6-42.6 29.5-11.7 99.5-9 132.1-9s102.7-2.6 132.1 9c19.6 7.8 34.7 22.9 42.6 42.6 11.7 29.5 9 99.5 9 132.1s2.7 102.7-9 132.1z"
     id="path208" />
  <path
     style="fill:#ff0000;stroke-width:0.636816"
     d="M 166.49131,479.21019 C 126.90343,478.40542 111.14044,477.0208 94.081885,472.84977 64.524361,465.62259 40.165484,448.86718 23.789453,424.49865 14.126726,410.11992 8.0411383,394.4052 4.7769606,375.40299 1.1978209,354.56724 0.66879764,339.16258 0.6655153,255.68159 0.66231034,174.16627 1.1872587,158.12207 4.5201589,137.87065 10.157349,103.61786 26.61543,76.089729 52.588295,57.47088 64.830242,48.695144 82.667329,41.135553 99.343284,37.655501 120.4094,33.25928 138.13729,32.525592 223.52239,32.516213 c 94.23152,-0.01035 109.55634,0.829585 134.04975,7.347114 37.96861,10.103185 67.40046,37.477996 80.14308,74.541753 4.46808,12.99608 7.03466,26.94514 8.36002,45.43572 1.43471,20.01622 2.18154,94.84478 1.39348,139.61859 -1.00061,56.84924 -1.92163,68.766 -6.77979,87.72126 -6.01816,23.48124 -15.89679,40.38796 -33.39731,57.15765 -19.97236,19.13831 -45.85313,29.83962 -79.64983,32.93401 -20.6916,1.89451 -110.28558,2.9719 -161.15048,1.93788 z m 140.13556,-40.07147 c 28.27719,-2.00507 41.94657,-4.60086 53.89383,-10.23432 11.21158,-5.28657 20.01164,-12.12168 26.94993,-20.93233 14.27575,-18.12816 18.66219,-36.1135 20.37496,-83.54163 0.78826,-21.82768 0.78358,-114.31424 -0.007,-136.7153 -0.947,-26.83621 -3.0951,-45.38968 -6.72756,-58.10711 -4.45097,-15.58314 -16.02572,-31.445594 -29.65787,-40.644228 -14.56923,-9.83095 -27.67729,-13.260238 -61.64227,-16.126654 -12.39063,-1.045685 -137.09374,-1.519157 -157.47893,-0.597915 -25.19629,1.138665 -40.83819,2.955952 -52.648034,6.116685 -23.911189,6.399484 -44.01918,25.354512 -51.829346,48.857522 -2.917258,8.77887 -5.313196,23.95067 -6.86215,43.45323 -1.024275,12.89641 -1.49742,135.67598 -0.601458,156.07601 2.066076,47.04219 6.676031,64.88615 21.32601,82.54755 6.963186,8.39454 18.261058,16.69026 28.517042,20.93931 13.005326,5.38809 34.969806,8.50368 66.422636,9.42183 23.19403,0.67706 138.76326,0.282 149.97015,-0.51265 z"
     id="path285" />
  <path
     style="fill:#ff0000;stroke-width:0.636816"
     d="m 211.74129,369.86993 c -15.7058,-1.65378 -35.50743,-8.59674 -48.83678,-17.12343 -28.43373,-18.18884 -46.9692,-46.7705 -52.13473,-80.3917 -1.107,-7.20518 -1.27632,-24.44244 -0.3065,-31.20253 4.21947,-29.41175 18.17011,-54.67029 40.46209,-73.25925 7.58382,-6.32403 13.66422,-10.24636 22.92538,-14.78861 65.2588,-32.00703 143.47767,4.37983 161.39425,75.07946 3.68125,14.52637 4.22882,34.90125 1.32945,49.46787 -7.01276,35.23252 -29.59546,64.80293 -61.77122,80.88494 -10.76628,5.38118 -22.63943,9.03519 -35.12488,10.80982 -5.97544,0.84932 -21.99219,1.14942 -27.93706,0.52343 z m 24.86603,-40.07231 c 15.70015,-2.69691 29.19512,-9.68152 40.42175,-20.92111 14.45613,-14.47284 21.94563,-32.64635 21.95344,-53.27071 0.0109,-28.68955 -16.20723,-54.42349 -42.31273,-67.13938 -10.36766,-5.05005 -17.42054,-6.72585 -29.96331,-7.11944 -7.935,-0.249 -11.45696,-0.0824 -15.9204,0.75319 -10.44159,1.95469 -20.57596,6.10652 -29.19848,11.96196 -5.01088,3.40282 -13.67553,11.73879 -17.69334,17.02218 -4.47252,5.88132 -10.36554,18.16761 -12.38015,25.81121 -2.31147,8.76994 -2.8536,22.87338 -1.22824,31.95225 2.80777,15.68351 9.64132,28.72823 20.97482,40.03936 17.29019,17.25606 41.50759,25.00547 65.34664,20.91049 z"
     id="path287" />
  <path
     style="fill:#ff0000;stroke-width:0.636816"
     d="m 335.9204,161.51251 c -6.909,-2.22009 -13.32184,-7.91312 -16.43084,-14.58655 -1.51127,-3.24392 -1.69808,-4.40868 -1.70766,-10.64735 -0.0103,-6.69529 0.0842,-7.19421 2.13738,-11.28534 4.17941,-8.32784 12.68825,-14.1953 21.67873,-14.94902 11.65977,-0.97752 22.84774,6.25097 26.94338,17.40798 1.88133,5.12498 1.86121,13.16013 -0.0452,18.06021 -5.01071,12.87883 -19.75389,20.12016 -32.57575,16.00007 z"
     id="path291" />
</svg>
