<?xml version="1.0" encoding="UTF-8" standalone="no"?>
<svg
   viewBox="0 0 384 512"
   version="1.1"
   id="svg206"
   sodipodi:docname="ubicacionrojo.svg"
   inkscape:version="1.2.2 (732a01da63, 2022-12-09)"
   xmlns:inkscape="http://www.inkscape.org/namespaces/inkscape"
   xmlns:sodipodi="http://sodipodi.sourceforge.net/DTD/sodipodi-0.dtd"
   xmlns="http://www.w3.org/2000/svg"
   xmlns:svg="http://www.w3.org/2000/svg">
  <defs
     id="defs210" />
  <sodipodi:namedview
     id="namedview208"
     pagecolor="#ffffff"
     bordercolor="#000000"
     borderopacity="0.25"
     inkscape:showpageshadow="2"
     inkscape:pageopacity="0.0"
     inkscape:pagecheckerboard="0"
     inkscape:deskcolor="#d1d1d1"
     showgrid="false"
     inkscape:zoom="1.5136719"
     inkscape:cx="191.91742"
     inkscape:cy="255.66968"
     inkscape:window-width="1920"
     inkscape:window-height="991"
     inkscape:window-x="-9"
     inkscape:window-y="-9"
     inkscape:window-maximized="1"
     inkscape:current-layer="svg206" />
  <!--! Font Awesome Pro 6.4.0 by @fontawesome - https://fontawesome.com License - https://fontawesome.com/license (Commercial License) Copyright 2023 Fonticons, Inc. -->
  <path
     d="M215.7 499.2C267 435 384 279.4 384 192C384 86 298 0 192 0S0 86 0 192c0 87.4 117 243 168.3 307.2c12.3 15.3 35.1 15.3 47.4 0zM192 128a64 64 0 1 1 0 128 64 64 0 1 1 0-128z"
     id="path204" />
  <path
     style="fill:#ff0000;stroke-width:0.660645"
     d="m 184.8251,509.32994 c -5.3717,-1.44666 -9.99425,-4.08635 -13.66275,-7.80205 -1.84717,-1.87093 -8.43836,-9.94202 -14.6471,-17.93576 C 65.124973,365.92744 12.813952,273.63515 1.8666752,210.74581 0.4473196,202.59197 0.2615771,180.40311 1.5265649,170.11613 5.9089094,134.47856 20.322861,99.957317 42.351609,72.340645 48.118788,65.110533 65.110531,48.118788 72.340645,42.351609 124.89675,0.42964681 195.09344,-10.908329 258.47499,12.287699 c 9.12108,3.338079 24.78239,10.949985 33.19985,16.136202 51.83265,31.935449 85.14689,85.136269 91.14998,145.560929 0.87559,8.81344 0.87064,24.01514 -0.0102,31.16282 -4.19932,34.07762 -22.56275,78.74267 -54.99497,133.76332 -24.1446,40.96085 -58.20849,90.28555 -96.49579,139.72645 -18.0598,23.32086 -19.75961,25.16629 -26.12686,28.36517 -6.59553,3.31357 -13.69735,4.1249 -20.37194,2.32735 z m 25.21934,-255.58533 c 21.05569,-6.32844 37.22244,-22.48092 43.73878,-43.70017 1.6829,-5.48005 1.81605,-6.76102 1.84994,-17.7967 0.0322,-10.49507 -0.1409,-12.50415 -1.4742,-17.10742 -3.15944,-10.90813 -8.01692,-19.35929 -15.85604,-27.58674 -8.19501,-8.60098 -17.02276,-13.91371 -29.02105,-17.46548 -8.3174,-2.46214 -21.08681,-2.91753 -29.99507,-1.06971 -13.12689,2.72289 -23.39323,8.30406 -32.97792,17.92802 -12.01501,12.06425 -18.45087,27.62739 -18.46037,44.64069 -0.005,8.49821 0.84529,13.66001 3.56437,21.64437 6.03804,17.73026 20.32672,32.37202 38.1244,39.06649 8.09988,3.04671 12.57379,3.68813 24.03175,3.44539 9.16166,-0.19409 11.35727,-0.46045 16.47541,-1.99874 z"
     id="path281" />
</svg>
