<?xml version="1.0" encoding="UTF-8" standalone="no"?>
<svg
   viewBox="0 0 448 512"
   version="1.1"
   id="svg69"
   sodipodi:docname="whatsapp.svg"
   inkscape:version="1.2.2 (732a01da63, 2022-12-09)"
   xmlns:inkscape="http://www.inkscape.org/namespaces/inkscape"
   xmlns:sodipodi="http://sodipodi.sourceforge.net/DTD/sodipodi-0.dtd"
   xmlns="http://www.w3.org/2000/svg"
   xmlns:svg="http://www.w3.org/2000/svg">
  <defs
     id="defs73" />
  <sodipodi:namedview
     id="namedview71"
     pagecolor="#ffffff"
     bordercolor="#000000"
     borderopacity="0.25"
     inkscape:showpageshadow="2"
     inkscape:pageopacity="0.0"
     inkscape:pagecheckerboard="0"
     inkscape:deskcolor="#d1d1d1"
     showgrid="false"
     inkscape:zoom="0.75683594"
     inkscape:cx="-37.656774"
     inkscape:cy="458.48774"
     inkscape:window-width="1920"
     inkscape:window-height="991"
     inkscape:window-x="-9"
     inkscape:window-y="-9"
     inkscape:window-maximized="1"
     inkscape:current-layer="svg69" />
  <!--! Font Awesome Pro 6.4.0 by @fontawesome - https://fontawesome.com License - https://fontawesome.com/license (Commercial License) Copyright 2023 Fonticons, Inc. -->
  <path
     d="M 364.9772,115.884 C 329.00885,79.829806 281.10828,60 230.20319,60 125.13097,60 39.631023,145.49994 39.631023,250.57217 c 0,33.56473 8.756018,66.35688 25.409622,95.28608 L 38,444.57806 139.03759,418.05248 c 27.81323,15.19427 59.14604,23.1777 91.07976,23.1777 h 0.0858 c 104.98638,0 192.37487,-85.49995 192.37487,-190.57217 0,-50.90509 -21.63251,-98.71982 -57.60086,-134.77401 z M 230.20319,409.12477 c -28.49998,0 -56.39906,-7.64005 -80.69272,-22.06173 l -5.7515,-3.43373 -59.918638,15.70933 15.966858,-58.4593 -3.77711,-6.00904 C 80.149069,309.63237 71.822267,280.53148 71.822267,250.57217 c 0,-87.30266 71.078263,-158.380926 158.466763,-158.380926 42.32076,0 82.06621,16.481916 111.93969,46.441236 29.87347,29.95932 48.24394,69.70477 48.1581,112.02553 0,87.3885 -72.88098,158.46676 -160.18363,158.46676 z m 86.87344,-118.63546 c -4.72139,-2.40361 -28.15661,-13.90662 -32.53462,-15.4518 -4.37801,-1.63102 -7.55421,-2.40361 -10.73042,2.40361 -3.1762,4.80723 -12.27559,15.4518 -15.10842,18.71385 -2.74699,3.1762 -5.57982,3.60542 -10.3012,1.2018 -27.98492,-13.99246 -46.35539,-24.9804 -64.8117,-56.65659 -4.89307,-8.41264 4.89307,-7.81174 13.99246,-26.01052 1.54518,-3.1762 0.77259,-5.92319 -0.42922,-8.3268 -1.2018,-2.40362 -10.73041,-25.83884 -14.67921,-35.36745 -3.86295,-9.27108 -7.81174,-7.98343 -10.73041,-8.15512 -2.74699,-0.17168 -5.92319,-0.17168 -9.09939,-0.17168 -3.17621,0 -8.3268,1.2018 -12.70481,5.92319 -4.37801,4.80722 -16.65361,16.31023 -16.65361,39.74545 0,23.43523 17.08282,46.09787 19.40059,49.27407 2.40362,3.1762 33.56474,51.24846 81.37947,71.9367 30.21685,13.04818 42.06322,14.16415 57.17165,11.93222 9.18523,-1.37349 28.15661,-11.503 32.1054,-22.66264 3.94879,-11.15963 3.94879,-20.68824 2.74699,-22.66263 -1.11597,-2.14609 -4.29217,-3.34789 -9.01355,-5.66566 z"
     id="path67"
     style="stroke-width:0.858433" />
  <path
     style="fill:#ffffff;stroke-width:1.32129"
     d="m 47.495449,441.302 c 0.42019,-1.095 6.473199,-22.89008 13.451131,-48.43351 l 12.68715,-46.44262 -6.639661,-14.15534 c -13.379877,-28.52506 -18.051708,-50.27686 -17.871178,-83.2073 0.1401,-25.55565 2.237097,-38.555 9.688748,-60.06089 C 93.683461,88.360343 204.55957,35.784249 304.09887,72.69015 c 61.85561,22.934033 108.21256,77.40862 122.33096,143.75252 4.08945,19.21674 4.05523,50.129 -0.077,69.61668 -3.90589,18.42002 -8.17058,30.88998 -16.12538,47.15062 -9.09237,18.58594 -20.5203,34.2882 -36.85448,50.63893 -27.04162,27.06902 -60.14725,44.95251 -98.18718,53.04025 -18.22354,3.87453 -52.50396,4.1527 -70.93798,0.57563 -15.11092,-2.93222 -32.44247,-8.55786 -46.84563,-15.20559 l -10.63054,-4.90648 -48.887739,12.91074 c -26.888258,7.1009 -49.397291,12.93744 -50.020073,12.97009 -0.622782,0.0326 -0.788539,-0.83654 -0.368349,-1.93154 z M 267.33618,406.83116 c 33.23853,-5.91627 60.05464,-20.20767 84.97801,-45.28829 24.55293,-24.70783 38.2549,-50.70611 44.18688,-83.84066 3.06614,-17.12666 2.15969,-48.09455 -1.85395,-63.33827 -8.00024,-30.38473 -23.08687,-55.80149 -46.52414,-78.38018 -62.24198,-59.9619 -160.48484,-59.040179 -221.89331,2.08182 -30.885581,30.74149 -46.473326,68.1359 -46.544424,111.65829 -0.05264,32.22343 7.15092,57.929 24.329594,86.81908 l 2.91311,4.89909 -7.955036,29.12414 c -4.375269,16.01828 -7.393526,29.12414 -6.707237,29.12414 0.686289,0 13.672483,-3.27019 28.858203,-7.26709 15.18573,-3.99691 28.4395,-7.2671 29.45282,-7.2671 1.01333,0 6.90709,2.69426 13.09726,5.98724 31.68602,16.85602 67.03995,22.20632 103.66222,15.68779 z"
     id="path256" />
  <path
     style="fill:#ffffff;stroke-width:1.32129"
     d="m 265.66968,338.17797 c -16.84766,-5.07974 -34.94628,-13.44116 -48.04355,-22.19574 -34.09628,-22.79088 -69.77819,-67.66726 -76.20692,-95.84383 -2.28331,-10.00757 -0.93196,-24.86103 3.04715,-33.49298 3.94555,-8.55913 11.70033,-18.07161 17.24504,-21.15381 5.63216,-3.13081 18.1266,-3.13081 21.86091,0 2.78141,2.33191 19.99672,42.04272 19.99672,46.12673 0,2.92389 -6.81638,13.42379 -11.83738,18.23422 -2.20996,2.11727 -4.0181,5.14851 -4.0181,6.73608 0,4.31901 12.41351,22.49537 21.62417,31.66297 4.45767,4.43683 11.67234,10.47469 16.0326,13.41745 12.42743,8.38734 30.26419,17.6032 34.06998,17.6032 3.3597,0 5.25991,-1.90703 22.14626,-22.22577 3.28045,-3.94724 3.80508,-3.78916 29.00699,8.74049 l 20.48,10.18205 0.40885,5.66786 c 1.07806,14.94504 -6.81921,26.82792 -23.18373,34.88415 -12.08582,5.94983 -26.52908,6.51122 -42.62899,1.65693 z"
     id="path258" />
</svg>
