<?xml version="1.0" encoding="UTF-8" standalone="no"?>
<svg
   viewBox="0 0 448 512"
   version="1.1"
   id="svg298"
   sodipodi:docname="whatsappverde.svg"
   inkscape:version="1.2.2 (732a01da63, 2022-12-09)"
   xmlns:inkscape="http://www.inkscape.org/namespaces/inkscape"
   xmlns:sodipodi="http://sodipodi.sourceforge.net/DTD/sodipodi-0.dtd"
   xmlns="http://www.w3.org/2000/svg"
   xmlns:svg="http://www.w3.org/2000/svg">
  <defs
     id="defs302" />
  <sodipodi:namedview
     id="namedview300"
     pagecolor="#ffffff"
     bordercolor="#000000"
     borderopacity="0.25"
     inkscape:showpageshadow="2"
     inkscape:pageopacity="0.0"
     inkscape:pagecheckerboard="0"
     inkscape:deskcolor="#d1d1d1"
     showgrid="false"
     inkscape:zoom="1.6875"
     inkscape:cx="224.88889"
     inkscape:cy="256"
     inkscape:window-width="1920"
     inkscape:window-height="991"
     inkscape:window-x="-9"
     inkscape:window-y="-9"
     inkscape:window-maximized="1"
     inkscape:current-layer="svg298" />
  <!--! Font Awesome Pro 6.4.0 by @fontawesome - https://fontawesome.com License - https://fontawesome.com/license (Commercial License) Copyright 2023 Fonticons, Inc. -->
  <path
     d="M380.9 97.1C339 55.1 283.2 32 223.9 32c-122.4 0-222 99.6-222 222 0 39.1 10.2 77.3 29.6 111L0 480l117.7-30.9c32.4 17.7 68.9 27 106.1 27h.1c122.3 0 224.1-99.6 224.1-222 0-59.3-25.2-115-67.1-157zm-157 341.6c-33.2 0-65.7-8.9-94-25.7l-6.7-4-69.8 18.3L72 359.2l-4.4-7c-18.5-29.4-28.2-63.3-28.2-98.2 0-101.7 82.8-184.5 184.6-184.5 49.3 0 95.6 19.2 130.4 54.1 34.8 34.9 56.2 81.2 56.1 130.5 0 101.8-84.9 184.6-186.6 184.6zm101.2-138.2c-5.5-2.8-32.8-16.2-37.9-18-5.1-1.9-8.8-2.8-12.5 2.8-3.7 5.6-14.3 18-17.6 21.8-3.2 3.7-6.5 4.2-12 1.4-32.6-16.3-54-29.1-75.5-66-5.7-9.8 5.7-9.1 16.3-30.3 1.8-3.7.9-6.9-.5-9.7-1.4-2.8-12.5-30.1-17.1-41.2-4.5-10.8-9.1-9.3-12.5-9.5-3.2-.2-6.9-.2-10.6-.2-3.7 0-9.7 1.4-14.8 6.9-5.1 5.6-19.4 19-19.4 46.3 0 27.3 19.9 53.7 22.6 57.4 2.8 3.7 39.1 59.7 94.8 83.8 35.2 15.2 49 16.5 66.6 13.9 10.7-1.6 32.8-13.4 37.4-26.4 4.6-13 4.6-24.1 3.2-26.4-1.3-2.5-5-3.9-10.5-6.6z"
     id="path296" />
  <path
     style="fill:#008000;stroke-width:0.592593"
     d="m 0.88888889,478.55612 c 0,-0.30525 6.95783411,-25.95547 15.46185311,-57.0005 l 15.461853,-56.4455 -5.039552,-9.81432 C 14.041705,330.50205 6.3867686,304.53256 3.1809473,275.25926 2.0681652,265.09812 2.2342017,240.66491 3.4869976,230.22222 5.4821787,213.59138 8.3972302,200.08752 13.115252,185.6197 34.115144,121.22355 83.684225,69.681195 147.3639,46.026817 197.19066,27.518226 253.30117,27.8413 303.11111,46.92358 c 26.26271,10.061292 50.83462,25.405852 71.11111,44.407158 40.78053,38.215842 65.26918,85.302512 72.08004,138.595192 1.29647,10.14443 1.48483,36.23993 0.33363,46.22222 -5.0475,43.76816 -20.88625,81.79275 -48.36881,116.12056 -5.89062,7.35783 -19.97949,21.85257 -27.89671,28.70036 -33.40035,28.88873 -74.26126,47.16392 -118.81481,53.14034 -11.16968,1.49831 -37.51896,1.82341 -49.03449,0.605 -28.03034,-2.96576 -52.42854,-9.91177 -76.44598,-21.76367 l -8.44342,-4.16659 -57.759184,15.16348 c -31.767556,8.33991 -58.034682,15.16348 -58.3713938,15.16348 -0.3367118,0 -0.61220331,-0.24975 -0.61220331,-0.55499 z M 250.66667,437.06474 c 34.11178,-5.17768 64.09155,-18.36019 91.55555,-40.25823 7.46704,-5.95373 21.63529,-20.17376 27.81598,-27.91762 45.70985,-57.27037 53.5461,-133.55403 20.24285,-197.05835 -15.08203,-28.7592 -37.93458,-54.41833 -63.81888,-71.65663 C 287.93192,74.513703 241.76962,64.391115 195.45385,71.446061 144.64012,79.186148 98.78557,108.61262 69.928628,152 53.403597,176.84594 43.708212,203.56815 40.257909,233.77778 39.00702,244.73013 39.347978,270.38335 40.872251,280 c 2.285123,14.41685 5.522425,27.04226 10.180493,39.7037 2.908303,7.90528 11.168169,24.52804 16.151801,32.50508 2.311574,3.70002 4.197802,7.03335 4.191621,7.40741 -0.0062,0.37406 -4.126507,15.73756 -9.156273,34.14112 -5.029767,18.40356 -9.052851,33.55319 -8.940189,33.66585 0.112663,0.11266 15.870026,-3.90807 35.016361,-8.93496 l 34.811525,-9.1398 5.8236,3.45795 c 23.13688,13.73825 47.60279,21.92184 75.19696,25.1526 10.39839,1.21745 35.82671,0.72865 46.51852,-0.89421 z"
     id="path373" />
  <path
     style="fill:#008000;stroke-width:0.592593"
     d="m 273.77778,360.23238 c -17.71318,-2.62007 -46.18392,-13.51363 -64.96028,-24.85529 -21.12279,-12.75899 -43.75915,-33.26198 -62.12054,-56.26598 -22.59651,-28.30994 -32.63334,-47.8978 -35.00764,-68.32082 -1.18988,-10.23494 0.75299,-22.67437 5.06354,-32.41992 3.98015,-8.99855 14.70445,-21.7378 20.72862,-24.62326 2.65229,-1.27039 3.93099,-1.44166 12.19506,-1.63341 10.747,-0.24935 12.52581,0.21532 15.2569,3.98548 0.96122,1.32692 2.84181,5.0141 4.17909,8.19374 19.47677,46.30964 18.58228,43.44705 15.46432,49.48972 -2.64826,5.13241 -6.26657,10.10338 -11.51559,15.8206 -4.72995,5.15187 -5.41073,6.53219 -4.86878,9.87184 0.84663,5.21715 14.93753,24.86282 25.2714,35.23361 11.88313,11.9256 24.66518,20.57052 46.78572,31.64274 8.68068,4.34503 11.47159,4.91795 14.61374,2.99994 1.94774,-1.18893 6.54406,-6.40916 14.10357,-16.01804 9.30233,-11.82416 9.34006,-11.86035 12.29429,-11.79126 1.42486,0.0333 4.59065,0.86643 7.0351,1.85133 8.11374,3.26915 43.13191,20.42793 45.24551,22.17013 1.74124,1.43528 2.14058,2.21735 2.45904,4.81575 0.79791,6.51053 -2.59633,21.59274 -6.09933,27.1022 -2.28451,3.59305 -7.19198,8.30157 -12.41704,11.91365 -5.47242,3.78308 -15.31317,8.49545 -20.29929,9.72059 -3.76348,0.92471 -19.59814,1.68011 -23.40741,1.11666 z"
     id="path375" />
  <path
     style="fill:#ffffff;stroke-width:0.592593"
     d="m 208.2963,437.83362 c -27.9241,-2.64967 -54.27143,-11.19424 -78.89216,-25.58511 l -6.15199,-3.59585 -33.495644,8.77753 c -18.422606,4.82764 -34.048597,8.95302 -34.724423,9.16752 -1.107889,0.35163 -0.33566,-2.86139 7.84947,-32.65941 4.993034,-18.17718 9.08729,-33.53754 9.098346,-34.13413 0.01106,-0.5966 -2.029981,-4.46326 -4.535637,-8.59259 -14.743155,-24.29678 -23.39906,-49.27511 -26.525606,-76.54491 -1.191528,-10.39253 -1.205949,-31.00269 -0.02882,-41.18882 5.860578,-50.71378 31.93068,-96.06092 72.928714,-126.85446 50.18176,-37.691426 115.99648,-47.085405 175.22271,-25.010193 9.02529,3.363969 24.72406,11.241991 33.09225,16.606497 42.98407,27.555316 74.08,72.049476 84.35088,120.694926 7.00346,33.17017 3.82587,69.1244 -8.96,101.38168 -22.51435,56.80112 -73.18941,100.1363 -132.70631,113.48485 -14.18534,3.18151 -21.31152,3.95404 -38.15141,4.13591 -8.63704,0.0933 -16.90371,0.0557 -18.37037,-0.0834 z m 83.95712,-77.26869 c 14.693,-1.96601 32.58164,-12.89173 38.93066,-23.77741 4.18399,-7.17362 6.91103,-26.39099 4.30923,-30.36702 -0.84344,-1.28893 -5.67059,-3.92657 -20.74074,-11.33307 -20.45169,-10.05136 -28.24705,-13.52656 -31.84196,-14.19525 -3.59744,-0.66917 -5.89296,0.7737 -10.03745,6.30917 -7.32755,9.78681 -17.22002,21.13204 -19.2773,22.10829 -1.68182,0.79808 -2.45694,0.84698 -4.55215,0.28723 -3.0948,-0.8268 -22.76844,-11.12482 -30.31723,-15.86933 -20.24298,-12.72297 -34.86413,-27.94238 -47.66358,-49.61386 -3.71328,-6.28717 -3.48654,-7.46134 2.73979,-14.18775 4.55839,-4.92451 9.05244,-11.14713 11.4362,-15.83496 2.56621,-5.04663 2.35973,-7.33481 -1.47529,-16.34882 -1.75965,-4.13596 -6.0458,-14.45326 -9.52477,-22.92734 -7.08103,-17.24795 -8.37395,-19.77326 -11.13001,-21.73905 -1.83494,-1.3088 -2.40177,-1.37206 -12.29401,-1.37206 -10.0728,0 -10.47012,0.0467 -13.84673,1.62842 -6.30935,2.95545 -15.03088,13.12149 -19.95535,23.26047 -11.47388,23.62352 -7.09351,51.18573 12.83243,80.74441 25.61115,37.99229 55.50376,66.59286 87.42794,83.64909 11.11429,5.93806 32.38923,14.31202 43.94321,17.29633 10.89222,2.81339 21.33184,3.58114 31.03711,2.28251 z"
     id="path272" />
  <path
     style="fill:#ffffff;stroke-width:0.592593"
     d="m 266.37037,358.48012 c -7.63806,-1.76408 -18.70075,-5.35397 -28.14815,-9.13417 -27.80065,-11.12393 -46.74262,-23.90181 -70.25845,-47.39497 -12.22271,-12.21093 -17.60159,-18.36845 -27.45774,-31.43246 -16.41102,-21.7523 -25.12384,-39.19561 -27.96365,-55.98403 -1.97421,-11.67113 -0.0746,-26.11876 4.77764,-36.33614 4.5868,-9.6585 14.47502,-21.29229 20.46888,-24.08226 3.05655,-1.42274 3.81097,-1.51226 12.79013,-1.51771 8.93171,-0.005 9.67078,0.0801 11.55556,1.33649 2.71113,1.8073 5.00756,6.34132 13.46582,26.58662 10.92675,26.15378 11.37192,27.82986 8.7594,32.97969 -1.8562,3.65894 -7.29854,11.2113 -11.59553,16.09116 -4.12587,4.68552 -4.76428,5.83935 -4.76428,8.61062 0,5.64503 12.78881,23.86603 26.031,37.08797 7.96891,7.95671 14.79183,13.322 25.22826,19.83855 8.72996,5.45103 27.28875,14.84337 30.35253,15.361 4.82646,0.81542 6.67591,-0.82793 20.84813,-18.52481 3.99555,-4.98925 7.93663,-9.37755 8.75795,-9.75177 1.17384,-0.53483 2.27299,-0.47574 5.13772,0.27623 7.25669,1.90483 48.03414,21.91379 50.19574,24.6304 1.18716,1.49198 1.26395,2.08922 0.97013,7.54614 -0.36266,6.73572 -2.52518,15.90397 -4.85438,20.58073 -5.16277,10.36622 -24.39421,22.58155 -38.00702,24.1411 -9.22725,1.05712 -19.28413,0.70963 -26.28969,-0.90838 z"
     id="path274" />
  <path
     style="fill:#008000;stroke-width:0.592593"
     d="m 1.4814815,477.9425 c 0,-0.74006 1.7813336,-7.3463 15.8235815,-58.68324 6.374286,-23.3037 12.311326,-45.03275 13.193421,-48.28676 l 1.603808,-5.91638 -5.127096,-10.13431 C 15.199308,331.64539 7.8595123,307.87081 4.0279474,280.59259 2.559398,270.13749 2.5849517,238.66796 4.0710143,227.55556 9.2593013,188.75885 23.483445,153.10401 45.797191,122.96296 83.239899,72.385951 139.43925,40.239267 201.63504,33.821891 c 11.81617,-1.219196 32.91375,-1.219196 44.72992,0 27.71468,2.859607 52.57524,10.181126 77.48689,22.820156 21.79799,11.059302 37.36079,22.378499 55.60013,40.43931 27.00128,26.737003 45.30602,55.844523 56.70982,90.177903 7.4592,22.45739 10.24392,38.4758 10.76553,61.92593 0.3851,17.31316 -0.1803,26.45233 -2.47463,40 -6.27298,37.04098 -20.93067,69.97281 -44.97076,101.03703 -6.26215,8.09185 -27.91271,29.76728 -36.13289,36.1744 -30.96732,24.13708 -64.75078,39.2906 -102.26552,45.87104 -13.29719,2.33245 -21.85139,2.84995 -41.93404,2.5369 -14.72293,-0.22951 -19.86787,-0.53337 -26.5569,-1.56845 -24.40251,-3.77613 -45.27007,-10.29056 -67.06653,-20.93682 l -7.80729,-3.81338 -18.85938,4.94752 C 37.812203,469.4484 2.8702973,478.51852 2.2211356,478.51852 c -0.4068098,0 -0.7396541,-0.25921 -0.7396541,-0.57602 z M 241.77778,438.19785 c 14.22416,-1.04952 34.9538,-5.88714 49.63788,-11.58386 14.94878,-5.79941 32.36534,-15.57109 46.36212,-26.0118 9.42704,-7.03197 28.38617,-25.94626 35.35247,-35.26886 23.81499,-31.87021 36.29409,-66.73616 37.64755,-105.18518 1.80568,-51.29614 -18.77734,-100.39706 -58.27001,-139.00348 -28.78106,-28.135177 -63.55828,-44.922774 -105.10038,-50.733858 -10.42083,-1.457709 -36.39399,-1.457709 -46.81482,0 -23.90422,3.343824 -45.48657,10.316231 -64.88889,20.963047 -7.44875,4.087427 -20.95906,13.065511 -27.55555,18.311661 -7.05128,5.60785 -23.186923,21.86515 -28.998194,29.21685 -21.836444,27.62475 -34.921133,59.10344 -38.944032,93.69022 -1.374583,11.81795 -0.851595,40.71773 0.916896,50.66667 2.467626,13.88204 6.422586,28.27026 10.799255,39.28789 2.533804,6.37848 10.697931,22.50726 15.101753,29.83453 2.085043,3.46918 3.790987,6.81425 3.790987,7.43349 0,0.61924 -4.014673,16.01058 -8.921499,34.20299 -4.906823,18.19242 -8.774775,33.22384 -8.595449,33.40316 0.346086,0.34609 7.641054,-1.48117 45.82666,-11.47877 l 23.865273,-6.24831 6.65325,3.81625 c 23.71219,13.60112 47.79654,21.62956 73.91251,24.6385 6.39399,0.73668 28.51695,0.76497 38.22222,0.0489 z"
     id="path276" />
  <path
     style="fill:#008000;stroke-width:0.592593"
     d="m 208.2963,437.83362 c -27.92186,-2.64946 -54.26544,-11.19233 -78.88861,-25.5825 l -6.14843,-3.59325 -33.709095,8.84154 c -18.540001,4.86284 -34.166387,8.98668 -34.725303,9.16407 -0.821825,0.26083 0.723649,-6.05572 8.079465,-33.02183 C 67.906947,375.30225 72,359.94718 72,359.51926 72,359.09135 69.74508,355.01429 66.989067,350.45914 52.548927,326.59239 43.894386,301.42468 40.895105,274.57697 39.737377,264.21371 39.734717,243.47351 40.889835,233.47785 45.60089,192.71132 63.163009,155.61962 91.715497,126.13259 139.43937,76.846681 209.78343,58.073771 275.41163,77.109106 c 22.20174,6.439571 45.09667,18.358949 63.56243,33.091364 7.8549,6.26682 23.07623,21.54324 29.54445,29.65138 31.49731,39.48298 45.65147,85.94353 40.61985,133.33334 -5.72165,53.88892 -36.04028,103.22118 -82.32355,133.9509 -23.07137,15.31822 -48.36395,25.01483 -76.72207,29.41354 -5.97439,0.9267 -11.27694,1.23622 -23.42607,1.36743 -8.63704,0.0933 -16.90371,0.0557 -18.37037,-0.0834 z m 89.64964,-78.36044 c 12.69814,-3.3385 27.60733,-13.36148 32.84698,-22.08202 2.22076,-3.69608 4.59406,-12.1916 5.51293,-19.73419 0.6945,-5.70085 0.38678,-9.29722 -0.9798,-11.45115 -1.46833,-2.31432 -45.36065,-23.65328 -51.62865,-25.10011 -4.26074,-0.98349 -6.38893,0.15941 -10.40238,5.58641 -1.80492,2.44061 -6.51161,8.3078 -10.45932,13.0382 -8.15749,9.77487 -9.77787,10.93487 -13.79199,9.87348 -2.97492,-0.78662 -22.06153,-10.74722 -29.96779,-15.63909 -19.89423,-12.30924 -34.22627,-27.09788 -47.59934,-49.11578 -4.30607,-7.08968 -4.15227,-7.82485 3.40125,-16.25797 4.6679,-5.21148 8.15535,-10.11486 10.52162,-14.79348 2.38952,-4.72461 2.1376,-7.18847 -1.64162,-16.05533 -1.76282,-4.13596 -6.05173,-14.45326 -9.53089,-22.92734 -7.09729,-17.28657 -8.3731,-19.78113 -11.11812,-21.73905 -1.83494,-1.3088 -2.40177,-1.37206 -12.29401,-1.37206 -10.10268,0 -10.46121,0.0426 -13.88981,1.64814 -4.14394,1.94059 -10.3956,8.12675 -15.12166,14.96325 -12.48444,18.05938 -14.4071,41.19757 -5.32394,64.07076 7.93125,19.97246 27.60185,47.39257 50.3282,70.15573 22.04169,22.07738 41.41133,35.41444 66.67388,45.90861 15.87809,6.59582 27.12485,10.18076 37.33333,11.90009 6.87419,1.15776 21.14636,0.69637 27.13113,-0.8771 z"
     id="path278" />
  <path
     style="fill:#ffffff;stroke-width:0.592593"
     d="m 1.7071966,476.67377 c 0.2134409,-1.1039 7.130359,-26.6646 15.3709284,-56.80155 L 32.06098,365.07777 26.96605,354.98333 C 13.561099,328.42448 5.4820296,300.03363 3.1831871,271.40741 2.340909,260.91898 2.8743324,236.53326 4.1553833,226.96296 13.109741,160.06803 49.471103,102.87291 105.89391,66.931906 c 26.77824,-17.057589 56.9273,-27.93816 90.55053,-32.679012 10.70265,-1.509066 44.47261,-1.495088 55.11112,0.02281 32.5116,4.638749 60.38069,14.34036 86.55669,30.131564 30.58156,18.448952 58.24802,46.410452 77.94152,78.772712 16.6106,27.29613 28.11848,62.48146 30.4556,93.11791 0.76125,9.97893 0.76492,29.00362 0.007,37.56226 -3.48482,39.36438 -19.10327,79.25549 -44.05079,112.51022 -10.47424,13.96202 -28.71684,32.19199 -43.38202,43.35198 -25.93276,19.73446 -57.69683,34.2081 -90.10504,41.05733 -16.85111,3.56136 -20.44806,3.87086 -44.97876,3.87021 -20.51033,-5.4e-4 -23.2848,-0.12081 -31.11111,-1.34863 -24.96713,-3.91695 -44.26902,-9.96189 -68.60637,-21.48606 l -6.68045,-3.16331 -5.17141,1.28774 c -2.84427,0.70825 -28.081761,7.29102 -56.083312,14.62838 C 28.3458,471.90536 4.5092687,478.0824 3.3772814,478.29477 l -2.058159,0.38611 z M 240.88889,438.21279 c 29.91708,-2.24059 60.16258,-12.97031 87.1027,-30.90008 11.95629,-7.9574 17.18038,-12.28634 28.46202,-23.58504 11.28127,-11.29832 15.70416,-16.626 23.38768,-28.17211 16.22855,-24.38679 25.75498,-49.66429 29.70326,-78.81482 1.29109,-9.53226 1.48647,-32.57286 0.35426,-41.77778 C 406.20437,204.9269 396.74948,179.4735 379.85191,154.07407 341.04344,95.739502 277.78897,64.400047 209.45179,69.649264 172.39639,72.49562 136.46326,86.893557 106.97023,110.7123 c -6.2987,5.08686 -22.011486,20.9885 -27.329602,27.65807 -21.359578,26.78754 -33.771647,55.7041 -39.171883,91.25926 -1.042401,6.86317 -1.037107,42.17711 0.0074,49.48148 1.329302,9.29582 4.848031,23.96421 8.176673,34.08577 3.506225,10.66155 11.264454,27.23542 18.215861,38.91446 2.170365,3.64641 3.946116,7.12744 3.946116,7.73561 0,0.60817 -3.825985,15.35806 -8.502181,32.77755 -4.6762,17.41949 -8.687205,32.42873 -8.913345,33.35388 -0.515426,2.10864 -4.28263,2.90361 36.537262,-7.71023 l 33.047659,-8.59294 7.91103,4.4977 c 17.66909,10.0455 34.95147,16.71236 53.75034,20.73475 6.69247,1.43198 16.99561,3.10428 21.57664,3.50208 5.5235,0.47965 27.28314,0.35603 34.66667,-0.19695 z"
     id="path349" />
</svg>
